<?xml version="1.0" standalone="no"?><svg xmlns="http://www.w3.org/2000/svg" viewBox="0 0 1440 320">
    <path fill="#3addd2" fill-opacity="1"
        d="M0,160L21.8,165.3C43.6,171,87,181,131,208C174.5,235,218,277,262,293.3C305.5,309,349,299,393,288C436.4,277,480,267,524,245.3C567.3,224,611,192,655,192C698.2,192,742,224,785,213.3C829.1,203,873,149,916,138.7C960,128,1004,160,1047,186.7C1090.9,213,1135,235,1178,218.7C1221.8,203,1265,149,1309,133.3C1352.7,117,1396,139,1418,149.3L1440,160L1440,320L1418.2,320C1396.4,320,1353,320,1309,320C1265.5,320,1222,320,1178,320C1134.5,320,1091,320,1047,320C1003.6,320,960,320,916,320C872.7,320,829,320,785,320C741.8,320,698,320,655,320C610.9,320,567,320,524,320C480,320,436,320,393,320C349.1,320,305,320,262,320C218.2,320,175,320,131,320C87.3,320,44,320,22,320L0,320Z">
    </path>
</svg>