<svg id="Capa_1" data-name="Capa 1" xmlns="http://www.w3.org/2000/svg" viewBox="0 0 570.3 312.8">
  <path class="cls-1"
    d="M229.6 442.3v-14c0-1.3 0-2.6-1.6-3.2-.5-.1-.8-1.3-.7-2 0-.3 1-.7 1.6-.7h10c.6 0 1.6.5 1.6.7 0 .7-.2 1.8-.7 2-1.5.8-1.6 2-1.6 3.3v30.1c0 1.4 0 2.8 1.7 3.6.4.1.5 1.3.4 2 0 .3-.9.7-1.4.7-7.8 0-15.8 0-23.6-.5s-13.3-7-14-14.7a33 33 0 0 1 5-19.6l1.6-3c.5-1 .7-2-.8-2.1-1.2-.2-.8-1-.8-1.6 0-1.1.8-1 1.5-1h9.7c.4 0 1.3.4 1.3.7 0 .6 0 1.6-.4 1.9-6 4.2-7.6 10.7-8.8 17.3a17.4 17.4 0 0 0 .6 8.4c1.7 5.3 5.1 7.9 10.8 8.1 2.3.2 4.6 0 7 .2 1.3 0 1.8-.6 1.6-1.8v-.3ZM427.1 448.8c1.4 1 2 1.8 1 3.5-1.1 2.2 0 4.5 2.5 6.1a12.2 12.2 0 0 0 9 1.4 12.9 12.9 0 0 0 4.7-1.9 5.4 5.4 0 0 0-.2-9.3 19.5 19.5 0 0 0-4.8-1.8l-9-2.5a28.6 28.6 0 0 1-4-1.6c-7.4-3.5-7-13.8-1.3-18a20.1 20.1 0 0 1 12.9-3.4 21 21 0 0 1 15 6.3l1.6 2-5.8 5.4c-.4.3-1.2.7-1.4.5-.6-.4-1.4-1.3-1.3-1.8.3-1.4.4-2.7-.7-3.6a14.9 14.9 0 0 0-4-2.6 13 13 0 0 0-8 0 7 7 0 0 0-3 1.5c-2 1.8-2 4.2.2 5.7a17.2 17.2 0 0 0 4.8 2.3c3 1 6 1.6 9 2.5a32 32 0 0 1 4.5 1.8c8.6 4.2 7.7 15.6 2.4 20a18.7 18.7 0 0 1-5.7 3.4 25.5 25.5 0 0 1-14.9.6 19 19 0 0 1-11.7-9.4c-.4-.7-.6-1.2.2-1.8l8-5.4ZM274.1 488.5l-7.2 7.2a1.6 1.6 0 0 1-1.5 0c-.6-.4-1.4-1.2-1.3-1.7.3-1.4.5-2.7-.6-3.6a11.5 11.5 0 0 0-4.3-2.2c-8.4-1.9-15 3-16 11.6-.7 5.6.3 10.7 4 15a16.5 16.5 0 0 0 10.6 5.5 56 56 0 0 0 6.6.1c.9 0 1.2-.4 1.2-1.3l-.2-12.4c0-1-.3-1.9-1.3-2.2-1.5-.3-1.4-1.4-1-2.4 0-.3 1-.6 1.7-.6h9a3.2 3.2 0 0 1 1.6.4c0 .9 0 2.2-.5 2.4-1.6.8-1.7 2.2-1.7 3.6v11.6c0 1.3.1 2.6 1.6 3.3.5.1.7 1 .7 1.7 0 .3-.8.7-1.3.8-7.6.7-15.1 1.4-22.7-.1a21.3 21.3 0 0 1-16.8-17.8 24.4 24.4 0 0 1 .7-11.6 18.4 18.4 0 0 1 13.4-12.9 27.4 27.4 0 0 1 22.5 3.4l2.8 2.2ZM274.4 439.8v-12.1c0-1 0-2-1.3-2.4a1.5 1.5 0 0 1-1-2.2c.2-.4 1.1-.7 1.7-.7h7.3c.6 0 1.6-.3 1.6.8 0 .6-.2 1.6-.6 1.8-1.7.9-1.7 2.3-1.7 3.9v29.8c0 1.4-.2 2.8 1.7 3.4.4.2.6 1.4.5 2.1 0 .3-.8.7-1.3.7h-8c-.4 0-1.3-.4-1.3-.7 0-.7.2-2 .6-2 1.8-.6 1.6-2 1.8-3.5.6-4.6-1-8-4.5-11.3-5.8-5-11-10.7-16.8-16.4l-.1 2.6v24.6c0 1.6-.3 3.4 1.9 4 .3.1.5 1.3.4 1.9 0 .3-.8.8-1.3.8h-8.8c-.4 0-1-.6-1.1-1 0-.6.3-1.6.6-1.7 2-.4 2-1.9 2-3.3v-31c0-1.1-.1-2.1-1.4-2.7a2.4 2.4 0 0 1-.9-2c0-1.2 1.2-.8 1.9-.8l7.6-.1a5 5 0 0 1 4.2 1.7l13.7 13.9a25 25 0 0 1 1.8 2.4ZM151 490.2c-1.9 1.8-3.7 3.6-5.6 5.2-.4.4-1.4.8-1.8.5-.5-.3-1.2-1.3-1-1.8.7-2.5-.7-3.9-2.5-5a12.6 12.6 0 0 0-11.1-.7c-1.8.7-3.2 1.8-3.3 4s1.3 3.2 3 3.8c2 .9 4.3 1.5 6.5 2.2 3.1 1 6.4 1.9 9.4 3.1 10 4.2 8.7 17 1.4 21.8a21.7 21.7 0 0 1-30.7-8.2l7.2-5c.6-.4 1.2-1.2 2.1-.4a2 2 0 0 1 .6 2.4c-1.2 3.5-.3 5.6 3 7.1a13.4 13.4 0 0 0 11.5 0 5.8 5.8 0 0 0 3.8-5.7c0-2.8-1.9-4.5-4.3-5.3-3-1-6-1.6-9-2.5a68.6 68.6 0 0 1-6.5-2.4c-7.6-3.1-8.2-13.6-1.3-18.3a16.4 16.4 0 0 1 7.3-2.8c7.8-.9 15 .5 20.4 6.7l.9 1.3ZM352 459.5h17.3c1.7 0 3.3-.6 3.9-2.3s1.8-1.4 3-1.2c1.2.2.6 1.5.6 2.3v4.8c0 1.6-.7 2-2 1.8h-31.4c-.7 0-2 .6-2.2-.7-.2-1-.2-2 1.2-2.4s1.3-2 1.3-3.1v-29.5c0-1.6.3-3.3-2-4-.3-.1-.5-1.4-.4-2.1 0-.3 1-.7 1.7-.7H373.7c1.1 0 1.6.4 1.5 1.6v5.5c0 .5-.5 1.3-.7 1.3-.8 0-2 0-2.2-.4-1-2.6-3.1-2.5-5.3-2.5h-13c-1.7 0-2.1.6-2 2v6.8c-.1 1.3.4 1.7 1.7 1.7h10.6c1.6 0 3-.2 3.8-2a1.6 1.6 0 0 1 2.3-.7c.4.2.6 1.2.6 1.8v7.3c0 .5-.4 1.4-.6 1.4-.7 0-1.9-.2-2-.6-.7-2-2.2-2-3.7-2h-11c-1.2 0-1.8.4-1.8 1.7v14.2ZM582.9 525.2H567c-.6 0-1.6-.3-1.8-.7a1.5 1.5 0 0 1 .9-2.2c1.7-.6 1.7-2 1.7-3.5V490c0-1.8 0-3.5-2-4.3-.5-.2-.8-1.3-.6-1.8a2 2 0 0 1 1.5-1H597c2.1 0 2.2 0 2.2 2.1v4.9c0 .5-.4 1.5-.6 1.5-.7 0-2 0-2.2-.5-1.1-2.7-3.4-2.4-5.6-2.4h-12.8c-1.4 0-2 .3-2 1.9.2 2.2.1 4.4 0 6.6 0 1.1.4 1.7 1.6 1.7h11.6c1.2 0 2.4-.3 3-1.6a1.5 1.5 0 0 1 2.1-1c.4.3.6 1.2.6 1.8v7.3c0 .8 0 1.5-1 1.6-.7 0-1.3 0-1.6-1-.4-1.4-1.6-1.9-3-1.8h-11.6c-1.1 0-1.6.2-1.6 1.5v12.7c0 1.2.2 1.7 1.5 1.7h16a3.5 3.5 0 0 0 3.7-2.3 1.8 1.8 0 0 1 1.7-1.4c1.2 0 2 .2 1.8 1.7a55.5 55.5 0 0 0 0 5.7c.1 1.5-.6 1.7-1.8 1.7l-16-.1ZM174 525.2h-15.4c-.7 0-2-.2-2-.6-.4-.9-.4-2 1-2.4 1.2-.3 1.3-1.4 1.3-2.5v-31.3c0-1-.3-2-1.4-2.4-1.3-.4-1.2-1.3-1-2.1.1-1.3 1.2-.8 1.9-.8h29.5c2.1 0 2.1 0 2.2 2.1a43.2 43.2 0 0 1 0 4.5c0 .6-.5 1.5-1 1.6a2 2 0 0 1-1.7-.5c-1.2-2.4-3.3-2.4-5.4-2.4h-12.8c-1.5 0-2 .4-2 1.9.2 2.3.1 4.6 0 7 0 1.1.4 1.6 1.6 1.6 3.9-.1 7.7 0 11.6-.2 1.2 0 2.4-.4 2.8-1.8.4-1.2 1.5-.9 2.3-.7.3.1.6 1 .6 1.5v7.3c0 .5-.4 1.4-.8 1.5s-1.7-.1-1.8-.5c-.8-2.2-2.5-2-4.3-2H169c-1.1 0-1.6.2-1.6 1.5v12.7c0 1.1.2 1.7 1.5 1.7h15.8c1.7 0 3.2-.7 3.8-2.4.4-1.4 1.4-1.3 2.4-1.2.3 0 .7.5 1 .8v.3l-.2 7.5-6.6.4-11-.1ZM322.1 454.1l8.7-25.2c.5-1.5 1.2-3-.7-4-.4-.3-.5-1.3-.4-2 0-.2 1-.5 1.4-.6h8.2c.5 0 1.3.5 1.3.8 0 .6-.1 1.7-.5 1.8-2 1-2.4 2.9-3 4.7l-11.3 32.8c-.8 2.4-.9 2.5-3.4 2.4-2 0-4.4.5-5.8-.5s-1.5-3.4-2-5.2q-5.2-15-10.2-30.1c-.5-1.6-1-3-2.6-4-.5-.2-.7-1.3-.6-2 0-.3 1-.7 1.6-.7h10.4c.4 0 1.3.4 1.3.7 0 .6-.1 1.7-.5 1.8-1.6.6-1.6 1.8-1.2 3l8.8 26c0 .2.1.2.5.3Z"
    transform="translate(-115.3 -213.8)" />
  <path class="cls-2"
    d="M546.3 525.2H532c-.5 0-1.6-.4-1.6-.7 0-.7.2-2 .6-2 2-.6 1.8-2.2 1.8-3.7v-30.1c0-1.1-.1-2.3-1.5-2.7s-1.1-1.5-.9-2.4c.2-.4 1.2-.6 1.8-.6h9.7c.6 0 1.6.3 1.7.6.2.8.6 1.8-.7 2.3-1.6.6-1.7 2-1.7 3.5V518c0 1.3.2 2 1.8 2h11.5c2.3 0 4-.8 4.7-3a1.7 1.7 0 0 1 2.2-1.3c.5 0 1 .6 1.1 1v7.6c0 1.3-.8 1-1.6 1ZM286.4 525.2h-5.2c-.5 0-1.4-.4-1.4-.7 0-.7.2-2 .6-2 1.8-.7 1.8-2 1.8-3.5v-29.7c0-1.5-.2-2.8-1.8-3.6-.4-.2-.7-1.3-.6-2 0-.3 1-.7 1.7-.7h9.7c.6 0 1.5.4 1.6.8.1.6-.2 1.8-.6 2-1.7.8-1.7 2.2-1.7 3.6v29.4c0 1.4-.1 2.9 1.6 3.6.5.2.7 1.4.7 2 0 .3-1 .7-1.6.7h-4.8Z"
    transform="translate(-115.3 -213.8)" />
  <path class="cls-1"
    d="M466.2 464.9h-4.9c-.5 0-1.4-.3-1.4-.6-.1-.8-.6-2 .7-2.3 1.6-.4 1.7-1.6 1.7-2.8v-31c0-1.2 0-2.5-1.6-2.9-1.3-.3-1-1.4-.8-2.2.1-.4 1-.7 1.7-.7h10c.5 0 1.4.4 1.4.6 0 .7 0 2-.5 2.1-2 .9-1.8 2.5-1.8 4.1v28.9c0 1.6-.1 3.2 1.9 4 .4.2.5 1.4.4 2.2 0 .2-.9.6-1.4.6h-5.4ZM289.6 443.4v-14.6c0-1.4.3-3-1.8-3.6-.4-.1-.6-1.4-.6-2 0-.3.8-.8 1.3-.8h10.6c.5 0 1.4.5 1.4.7 0 .7-.2 1.8-.7 2-1.8.8-1.7 2.3-1.7 3.8v29.5c0 1.5 0 3 1.8 3.7.4.2.5 1.4.5 2 0 .4-.9.8-1.4.8h-10.3c-.7 0-1.5.2-1.5-1 0-.6-.5-1.6.7-2 1.9-.4 1.7-2 1.7-3.3v-15.2ZM400.9 403.8l-8.6-7.3a76.7 76.7 0 0 0-15.6-9.8c-8-4-16-8.1-23.8-12.5-8.6-4.8-16.8-10.2-25.3-15a23.9 23.9 0 0 1-11.8-18.5 57 57 0 0 1-.6-8.7V217c0-3.5-.5-3.2 3.2-3.2h165.9c1 0 1.3.4 1.2 1.3v118.8a34.2 34.2 0 0 1-3.2 15.6 20 20 0 0 1-7 8.1c-14.5 9.3-29.2 18-44.3 25.9a81.5 81.5 0 0 1-7.4 3.4 65.5 65.5 0 0 0-20.3 14 34.8 34.8 0 0 0-2.4 3Zm73.7-116.2c-1.1 3.6-2.1 7.2-3.3 10.7-1.7 4.8-4.6 8.6-9.8 9.9l-6.2 1.4-44.4 8.3c-2.9.6-2.9.5-2.9 3.3V382l.1 2c6.2-3 12.5-5.8 18.5-9 14.4-7.8 28.5-16 42.2-25a12.6 12.6 0 0 0 5-6.3 26.7 26.7 0 0 0 1.5-9.5v-42.6l-.2-3.9Zm-82 93.6v-48.6c0-1.6-.5-2.2-1.9-2.5l-10.7-1.9q-15.5-3-30.6-7.2a32 32 0 0 1-21.3-17.5l-1.6-3.2-1-1.7a8 8 0 0 0-.2 1.2c0 12-.2 24 0 36a32.4 32.4 0 0 0 1.9 8.6c1 3.4 3.8 5.3 6.7 7a641.3 641.3 0 0 0 58.4 32.7 27 27 0 0 0 .4-3Zm65-78.8a6.5 6.5 0 0 0 5.2-4l11.4-23.4a12 12 0 0 0 1.1-5V225.2c0-2.5 0-2.6-2.5-2.6h-10c-2.5 0-2.5 0-2.5 2.5l-.3 41.3c0 4.3-.2 8.7-.1 13a3 3 0 0 1-1.9 3c-3.2 1.7-6.4 3.6-9.6 5.2a3 3 0 0 0-2 3.1v14.1c4-.8 7.6-1.7 11.3-2.3Zm-105-3.5c0-.6-.8-1.3-1.4-1.6q-5.8-3.3-11.7-6.4a2.5 2.5 0 0 1-1.6-2.5c0-4.6-.2-9.1-.3-13.7l-.7-40.6v-10c0-1.2-.5-1.6-1.7-1.6H328c-2.6 0-2.6-.3-2.6 2.6v60.5a5.5 5.5 0 0 0 1.4 3.8c4.6 5.6 9.1 11.4 14 16.8 3.5 4 8.2 6.3 13.2 8.8-.4-5.6-.7-10.8-1.2-16Zm.5-55.4 3.3 25.3 2.9 21.6a2.4 2.4 0 0 0 1.9 2.3l11.4 4 2.1.6v-30c0-2.1-.4-3.5-2.4-4.3-.4-.1-.7-.4-1-.6a4.1 4.1 0 0 1-2.6-3.4l-2.6-11.5-5.3-23.3c-.2-1.2-.6-1.7-1.9-1.7h-8.6l2.8 21Zm84.1 41.2c1.3-.4 1.2-1.2 1.2-2.1v-16.7c0-5 0-10.1.2-15.2l.5-26.7c0-1-.2-1.6-1.3-1.5a52 52 0 0 1-4 0c-1 0-1.4.6-1.4 1.5l-.6 5.7c-.8 7.4-1.7 14.8-2.4 22.3a1.8 1.8 0 0 1-1.3 1.7c-1.6.6-3.1 1.5-4.8 2s-2 1.5-1.8 3l.4 6.3.8 21.2c0 1 .2 2 .4 3.3l14.2-4.8Zm15.4-6.6c2-.8 2.7-2 2.7-4.3v-49.9c0-1-.4-1.5-1.5-1.4h-6.7c-.8 0-1.3.3-1.3 1.2v2.1l.5 20.3c0 10.3 0 20.6.2 31 0 1.2 0 2.4.2 4 2.4-1.2 4-2.2 6-3Zm-60-17.1v-36.7c0-1.3-.5-1.9-1.8-1.8h-7.3c-1.6 0-2 .6-2 2v35c0 1.3.4 2 1.7 2.4l9.4 2.5ZM363 314c.4 2.9.4 2.8 3.4 3.3l12.8 2.2 11.7 2c1.1.2 1.6-.2 1.6-1.4v-5.8c0-2.6 0-2.7-2.6-3.6l-19.8-7.5-8.8-3.3 1.8 14.2Zm74.2-22-26 7.9c-3.4 1-3.4 1-3.4 4.7l.1 7 14.1-2.3c5.2-1 10.3-2 15.5-2.8 1.1-.2 1.4-.6 1.5-1.8l.3-11.1a17.3 17.3 0 0 0-.2-2l-1.8.5Zm-56.7-15.5v21.6c0 2.3 0 2.3 2.3 3l7.8 2.4c1.8.5 1.8.4 1.9-1.4v-28c0-.8-.4-2-1-2.3-3.4-1.6-7-3.1-11-4.8ZM351 286.9l-1.5-18-2.2-24.5-1.8-20.5c0-1-.5-1.4-1.5-1.4-1.4-.1-1.7.6-1.7 1.8l.6 13.9 1.3 31.8.6 15.1c0 1 0 1.9 1 2.2l5 1.6a17.2 17.2 0 0 0 .2-2Zm61.9 6.5c2.5-.6 2.6-.6 2.5-3.1l-.9-28.8c-.1-4-.2-4-4.2-4.2-2.2-.1-2.3-.1-2.3 2.2v33.3l.1 1.7 4.8-1Zm6.7-70.9c-2.6 0-2.5 0-2.2 2.5l1.7 13 1.6 11c.1 1.3.7 1.4 1.8 1.4 1.3-.1 1.9-.6 2-2l1.7-15.4.9-9c0-1-.3-1.5-1.4-1.5h-3.6Zm-44.5 35.2.2-1.9v-32.2c-.1-.3-.7-1-1-1-2.6-.2-5.2-.1-7.9-.1 1.6 10.1 7.3 33.2 8.7 35.2Zm37.1-8c2-.2 2.2-.5 1.9-2.5l-3.1-18.6-.9-4.4c-.1-.7 0-2-1.3-1.6-.3.2-.7 1-.7 1.6V250l4.1-.3ZM479.5 443.7v-14.9c0-1.5.2-3-1.7-3.7-.5-.2-.6-1.4-.6-2.1 0-.2 1-.6 1.4-.6 7.1.2 14.2-.1 21.2.7a21.1 21.1 0 0 1 18.4 21.1 26.4 26.4 0 0 1-.7 7c-2 7.7-7.4 12-15.2 13.2a61 61 0 0 1-8.5.5H479c-.6 0-1.6-.4-1.7-.8 0-.6.2-1.9.6-2 1.7-.6 1.6-1.9 1.6-3.2Zm8.6 13.6c0 1.4.4 2 1.9 1.9 2.7-.2 5.5 0 8.2-.3a12.5 12.5 0 0 0 11.2-10.6 20.7 20.7 0 0 0 .2-5.7 15 15 0 0 0-7.4-11.9 23.6 23.6 0 0 0-12.2-3c-1.5 0-2 .5-2 2 .2 4.5 0 9 0 13.6l.1 14ZM615.3 525.2h-9.7c-.6 0-1.6-.3-1.7-.6-.1-.7 0-2 .4-2.2 2-.6 1.6-2.1 1.6-3.5v-29.4c0-1.5.3-3-1.6-3.8-.4-.2-.4-1.4-.4-2.2 0-.2.8-.6 1.2-.6 7.3 0 14.8-.5 22 1a21.6 21.6 0 0 1 17.4 20.6 19 19 0 0 1-6 15.9 20 20 0 0 1-13.2 4.7c-3.3.2-6.6 0-10 0Zm7.8-5.7c8-1 12-4.8 12.8-12.4.6-6.5-1.7-12.8-8.2-16.2a24 24 0 0 0-11.7-2.4c-1.4 0-1.4.8-1.4 1.8v29.3a76.7 76.7 0 0 0 8.5 0ZM572.3 464.9h-9.4c-.6 0-1.5-.5-1.6-.8 0-.7.2-1.8.6-2 1.6-.7 1.7-2 1.7-3.3v-30.3c0-1.3 0-2.6-1.6-3.3-.5-.2-.6-1.3-.7-2 0-.3.9-.8 1.4-.8 7 .2 14-.1 20.8.7a21.5 21.5 0 0 1 18.8 23 18.4 18.4 0 0 1-8 15.3 17 17 0 0 1-8.4 3l-13.6.7Zm-.3-7.5c0 1.2.3 1.8 1.7 1.8 2.8-.2 5.7 0 8.5-.3a12.2 12.2 0 0 0 9.6-6.1 16.9 16.9 0 0 0-6.3-22.4 22.9 22.9 0 0 0-10.8-2.6c-3.2 0-2.7.2-2.7 2.6v27ZM467 502l3.2 1.6c4.5 2.4 6.4 6.8 5.4 12.3a10.4 10.4 0 0 1-9.2 8.7 91.9 91.9 0 0 1-9.7.5H441c-.6 0-1.7-.2-1.8-.5-.2-.9-.4-2 1-2.5s1.3-1.6 1.3-2.8V489a3.3 3.3 0 0 0-1.7-3.3c-.5-.2-.6-1.3-.6-2 0-.3 1-.7 1.5-.7 7.6 0 15.1 0 22.7.3a12.3 12.3 0 0 1 4.4 1.1 8.4 8.4 0 0 1 5.5 7.4 9 9 0 0 1-4 8.9L467 502Zm-17.3 10.1v2.4c0 1.8.3 3.6.4 5.3a45.8 45.8 0 0 0 5 .2 62 62 0 0 0 8.1-.9 5.3 5.3 0 0 0 4.4-4.2c.9-4.8-.5-8.9-6.3-9.8-3.3-.5-6.8-.4-10.2-.5-1 0-1.4.5-1.4 1.4v6.1Zm5.8-12.8h3.3a18.6 18.6 0 0 0 2.1-.2c3.1-.4 4.7-2 4.8-4.8a5 5 0 0 0-4.3-5.6 90 90 0 0 0-10.6-.4c-.3 0-1 .8-1 1.3a22.3 22.3 0 0 0 0 4l.3 5.6 5.4.3ZM319 526.2c-6 0-11.3-1.6-15.8-5.8a19.5 19.5 0 0 1-6-11.6c-1.6-9.8 1.6-18.5 10.2-23.7s23.4-4.4 30.7 6c6.8 9.8 5.3 30.1-12.7 34.3a51 51 0 0 1-6.3.8Zm12.6-30.1a11.6 11.6 0 0 0-10.4-8.5 12.5 12.5 0 0 0-12.4 5.5 20.8 20.8 0 0 0 0 21.8c3 4.4 7.2 6.1 12.5 5.5a11.7 11.7 0 0 0 10-7.8c1-2.6 1.4-5.6 2-8.4a74.6 74.6 0 0 0-1.7-8.1ZM503.6 526.3c-7.6-.1-14-2.7-18.3-9-4.9-7.2-5.2-15.1-1.7-22.8s10-11.7 18.4-12.4 15.9 2 20.9 9.3c7.3 10.6 4.3 29.9-12.4 34a58.2 58.2 0 0 1-7 .9Zm13.2-28.6c-1.3-5.3-4.5-9-10.1-10-5.3-.8-9.6.7-12.9 5a20.1 20.1 0 0 0 .6 23.5 12.9 12.9 0 0 0 20-.8c2.4-3.4 3.2-7.3 3.3-11.5a56.6 56.6 0 0 0-.9-6.2ZM220 505.9l9 14.6a4.5 4.5 0 0 0 1.7 1.6c1 .5 1.7 1.3 1.2 2.3-.3.6-1.5.7-2.3.8h-5.4a3 3 0 0 1-3.4-2l-7.5-13c-2-3.5-2-3.4-5.8-3.4-1.5 0-2 .5-1.9 2v10.5c0 1.3.2 2.4 1.5 3 .5.3.8 1.4.7 2 0 .3-1 .8-1.5.8h-10c-.6 0-1.5-.4-1.5-.6 0-.7.1-2 .5-2 2-.7 1.8-2.2 1.8-3.8v-29.4c0-1.5.2-3-1.6-3.5-1.1-.4-.8-1.3-.8-2 .1-1.1 1-.8 1.6-.8l20.7.1a15.1 15.1 0 0 1 3.9.7c5 1.4 7.9 5 8 9.7.3 6-2 9.7-7.3 11.6l-1.5.8Zm-14.4-11v5.4c0 .5.5 1.3.8 1.3 3.8 0 7.7.4 11.3-.9a4.3 4.3 0 0 0 3-3.3c.7-3.8.2-7.5-5-8.8a15.2 15.2 0 0 0-3.5-.4c-2.1 0-4.2 0-6.3.2l-.6 6.5ZM405.5 445.3a14.8 14.8 0 0 0 .6 1.4c2.5 4.1 4.8 8.2 7.4 12.2a12.7 12.7 0 0 0 3.1 3.1 1.8 1.8 0 0 1 1 2c-.3 1-1 .9-1.7.9h-6.7a3 3 0 0 1-3-1.9c-2.7-4.9-5.5-9.7-8.3-14.4-.5-.9-1.1-2-1.9-2.3a17.3 17.3 0 0 0-4.8 0c-.2 0-.6.8-.6 1.2l.1 11.5a3 3 0 0 0 1.6 3c.5.2.7 1.4.6 2 0 .4-1 .8-1.6.8h-10a2 2 0 0 1-1.6-.8c-.2-.7-.4-1.8.7-2 2-.5 2-2.2 2-3.7v-29.1c0-1.7 0-3.4-2-4.3-.5-.1-.7-1.1-.7-1.7 0-1.1 1-.9 1.6-.9l21 .1a15.2 15.2 0 0 1 4 .8c4.8 1.4 7.7 4.9 8 9.3.4 5.9-1.8 9.7-6.7 12l-2.1.8Zm-15-5.5c0 1 .3 1.6 1.4 1.5 3.2-.2 6.4-.2 9.6-.7 3-.4 4.5-2.4 4.8-5.4.2-3.6-1.7-6.6-5.4-7.2-2.9-.5-5.8-.2-8.7-.3-1.5-.1-1.7.6-1.7 1.8v10.3ZM424.6 505.9c2.7 4.6 5.4 9.2 8.2 13.6a10 10 0 0 0 3 3c.8.5 1.1 1.1.8 2a2 2 0 0 1-1.6.7h-7a2.5 2.5 0 0 1-2.5-1.6L417 509c-.4-.7-1-1.8-1.7-1.9a20 20 0 0 0-4.8 0c-.2 0-.5.8-.5 1.3v11.2c0 1.1.3 2.3 1.6 2.7s1 1.5.7 2.3c0 .4-1 .6-1.7.7h-10c-.5 0-1.4-.4-1.4-.6 0-.8.2-2 .6-2.1 1.8-.6 1.8-2 1.8-3.4v-30.4c0-1.2-.1-2.5-1.6-2.9-1.2-.3-1-1.2-.8-1.9a2 2 0 0 1 1.6-.9c7 0 14.1 0 21.2.2a14.3 14.3 0 0 1 4.7 1.2 10 10 0 0 1 6.9 10 11 11 0 0 1-6.7 10.6l-2.3.9Zm-14.7-5.6c0 .7 0 1.5 1 1.4 3.5-.2 7-.4 10.6-.8a4.3 4.3 0 0 0 3.4-3c1.7-4.1-.3-8.3-4.6-9.1a54.6 54.6 0 0 0-9.4-.5c-.3 0-1 .7-1 1v5.5ZM537.6 449.4h-5.4a1.8 1.8 0 0 0-2 1.3l-3 8.3c-.6 1.2-.4 2.3.8 2.8 1.4.5 1.2 1.6.9 2.4-.2.4-1.3.7-2 .7h-7.6c-.5 0-1.4-.3-1.5-.6-.1-.7 0-2 .3-2.2 2.1-1.2 2.5-3.3 3.3-5.3l12.3-31.8c1-2.6 1-2.7 3.8-2.6 2 0 4.3-.5 5.6.4s1.7 3.3 2.3 5l11.8 30.8c.4 1.1 1.3 2 1.8 3a4.3 4.3 0 0 1 .6 2.5c0 .4-1.3.7-2 .7h-9c-.7 0-1.7-.2-1.8-.6-.2-.7-.7-1.8.6-2.3 1.5-.5 1.4-1.6 1-2.7l-3-8.2a2 2 0 0 0-2.3-1.5h-5.4Zm-.3-18.4-4.7 12.6h10L538 431ZM685.4 525.2H674c-.5 0-1.3-.5-1.3-.7 0-.7.1-2 .5-2 1.7-.7 1.4-1.8 1-3l-3-8.3a1.8 1.8 0 0 0-2-1.3h-11a2 2 0 0 0-2.1 1.6c-.8 2.5-1.9 4.9-2.8 7.3-.4 1.3-.8 2.7.9 3.4 1.2.5.9 1.6.7 2.3 0 .4-1 .7-1.7.7h-7.5c-.6 0-1.6-.4-1.7-.7-.1-.7 0-1.9.5-2.2 2-1.2 2.4-3.4 3.1-5.3l12.2-31.6c1-2.5.4-2.3 3.4-2.4h1c5.2 0 5.1 0 7 5l11.7 30.8a7 7 0 0 0 1.7 2.8c1 1 1 2 .8 3.6Zm-21.8-34.5-5 13.4h10l-5-13.4ZM376 509.9h-5.8a1.6 1.6 0 0 0-1.7 1.3c-.9 2.6-2 5-2.8 7.6-.5 1.4-.9 2.8 1 3.6.5.1.7 1.4.6 2 0 .4-1 .8-1.6.8H358c-.6 0-1.7-.3-1.7-.7-.2-.7 0-1.9.4-2.1 1.8-1.2 2.2-3 2.9-4.8l12.3-32c1-2.6 1-2.6 3.8-2.6h3.3c2.5 0 2.5 0 3.5 2.4 4 10.8 8 21.5 12.2 32.2.6 1.6 1.7 3 2.4 4.5a4.4 4.4 0 0 1 .5 2.4c0 .3-1.2.6-2 .7h-9c-.6 0-1.6-.4-1.7-.7 0-.7.1-2 .5-2.1 1.9-.8 1.4-2 .8-3.3-1-2.4-1.8-4.9-2.6-7.4-.4-1.2-1-2-2.6-1.8H376Zm-4.8-5.6c3.2 0 6.3.2 9.7-.3l-4.6-12.4c-1.5 1.6-4 8-5.2 12.7Z"
    transform="translate(-115.3 -213.8)" />
</svg>