<svg id="Capa_1" data-name="Capa 1" xmlns="http://www.w3.org/2000/svg" width="411.01" height="400.56" viewBox="0 0 411.01 400.56">
    <path class="cls-2"
        d="m414.72 394.07 17.65 29.16L512.15 555c2.44 4 4.74 8.18 7.34 12.12 1.54 2.32.91 3.45-1.33 4.59-7.75 3.95-15.49 7.91-23.12 12.08-2.65 1.44-3.28-.33-4.23-1.92q-10.33-17.26-20.65-34.56c-15.24-25.5-30.65-50.91-45.63-76.57-3.86-6.59-13.84-8-18.74.35-21.6 36.9-43.53 73.6-65.27 110.43-1.58 2.68-2.95 3.28-5.84 1.74-7-3.74-14.17-7.2-21.35-10.6-2.47-1.16-2.61-2.33-1.29-4.56q31.56-53.46 63-107l37.83-64.3c.45-.69.96-1.39 1.85-2.73Z"
        transform="translate(-209.04 -183.78)" />
    <path class="cls-3"
        d="M303.32 361.39h90.36c4.5 0 4.52 0 2.29 3.92Q355 436.67 314.08 508c-8.3 14.46-16.66 28.87-24.84 43.39-1.6 2.84-2.64 3.23-5.08.8q-8.49-8.46-17.46-16.43c-2.72-2.41-3-4.28-1.08-7.52 22.9-39.47 45.43-79.15 68.56-118.48 4.76-8.11.08-17-10-16.9-36.74.35-73.48.14-110.22.14-4.8 0-4.8 0-4.8-4.85 0-7.62.15-15.25-.07-22.87-.09-3.1.76-4 3.92-4 30.08.16 60.2.11 90.31.11Z"
        transform="translate(-209.04 -183.78)" />
    <path class="cls-2"
        d="M525.7 361.4c30.11 0 60.23 0 90.34-.07 3 0 4.1.64 4 3.86q-.36 12 0 24c.09 3.17-.89 3.9-4 3.89-37-.11-74-.06-111-.08-3.19 0-6.23.25-8.74 2.52-3.87 3.52-4.58 8.37-1.8 13.21q15.31 26.67 30.69 53.31c13 22.61 26 45.24 39.09 67.8 1.23 2.12.87 3.35-.72 4.83-6.49 6-13 12.07-19.36 18.24-2.33 2.25-3.1.53-4.07-1.16q-16.05-28-32.09-56L449 392.9q-7.82-13.57-15.64-27.15c-2.48-4.33-2.46-4.35 2.71-4.35ZM371.5 228.35c0-24.88 19.49-44.57 44.15-44.57s44.11 19.69 44.11 44.64S440.18 273 415.61 273s-44.1-19.81-44.11-44.65ZM473.75 325.45v-34.37c0-1.87-.08-3.43 2.62-3.38 6.74.13 13.49.1 20.24 0 2.22 0 2.73 1 2.72 3q-.06 26.43 0 52.86c0 2.64-1 3.45-3.54 3.42-9.5-.1-19-.13-28.49 0-2.67 0-4.09-1.4-5.58-3.13q-13.09-15.15-26.25-30.27c-1.43-1.64-3-3.14-5.21-5.39v35.29c0 1.83.12 3.51-2.58 3.47-6.75-.1-13.5-.08-20.25 0-2 0-2.52-.92-2.52-2.75v-54c0-2.07.89-2.52 2.7-2.51 9.5.05 19 .08 28.49 0 2.06 0 3.17 1.06 4.37 2.39q14.16 15.72 28.38 31.41c1.31 1.46 2.65 2.91 4 4.36ZM267.79 348c-9.29-.44-19-.27-28.09-4-6.16-2.49-10-6.78-10.93-13.5-.33-2.42.08-3.69 3-3.61 6.74.2 13.49.07 20.24.06 1.39 0 2.79-.23 2.75 2-.06 3.6 2.63 5.06 5.43 5.74a38.47 38.47 0 0 0 18.89.08c1.92-.49 4.07-1.19 4.38-3.53.36-2.69-2.16-3.19-3.89-3.82-6.12-2.24-12.64-2.73-19-3.92-7-1.3-14-2.63-20.61-5.25-8.74-3.44-12.5-11.2-9.06-18.78 1.85-4.08 5.36-6.47 9.37-8.12 10.53-4.32 21.63-4.63 32.76-4.5 8.25.09 16.47.69 24.32 3.55 5.39 2 9.66 5.19 11 11.2.54 2.36.13 3.76-2.84 3.69-6.37-.16-12.74-.07-19.11 0-1.47 0-2.55-.1-3.17-1.84a4.84 4.84 0 0 0-2.54-2.61 30.82 30.82 0 0 0-20.52-.65 2.89 2.89 0 0 0-2.33 2.62c-.07 1.45 1.05 2.1 2.23 2.68 5.47 2.68 11.47 3.14 17.32 4.2 7.95 1.44 16 2.41 23.51 5.66 6 2.61 10.3 6.53 10.38 13.65.06 6.12-3.55 10.92-10.2 13.81-10.53 4.6-21.77 4.85-33.29 5.19Z"
        transform="translate(-209.04 -183.78)" />
    <path class="cls-3"
        d="M357.84 346.93c-10.62 0-21.24-.1-31.85.05-3.1 0-4.09-.94-4.06-4.06q.19-25.67 0-51.33c0-3.24 1.13-3.93 4.11-3.92q31.29.16 62.57 0c3 0 3.76.93 3.74 3.81-.08 9.24 0 9.24-9.08 9.24-10 0-20 .19-30-.1-3.86-.11-4.85 1-4.84 4.78s1.07 4.61 4.63 4.53c10.74-.23 21.49 0 32.22-.15 3 0 3.83 1 3.81 3.85-.05 8.83.06 8.83-8.79 8.83-9.49 0-19 .07-28.48 0-2.4 0-3.24.71-3.3 3.18-.19 8.14-.28 8.14 7.93 8.14 11.24 0 22.48.11 33.72-.07 3.19-.05 4 1 3.94 4-.12 9.22 0 9.22-9.32 9.22Z"
        transform="translate(-209.04 -183.78)" />
    <path class="cls-2"
        d="M553.84 336.26c-5.49 0-11 .13-16.48-.06-2.72-.09-4.64.67-5.59 3.25-1.5 6.48-5 7.66-13.29 7.59l-13.85-.15c-1.05 0-2.46.56-3.05-.69-.47-1 .61-1.78 1.16-2.57q18.64-27.06 37.31-54.11a3.77 3.77 0 0 1 3.42-1.8q12.54.07 25.1 0a3.83 3.83 0 0 1 3.6 2.08Q590 316.94 607.89 344c1.7 2.57.66 2.93-1.69 2.92-7.87 0-15.73-.06-23.6 0a3.66 3.66 0 0 1-4-2.68c-1-2.86-.84-4.93-2.64-6.28-2.11-1.58-11.22-1.93-11.31-1.83s-7.19.13-10.81.13Zm-10.65-15.59c-1.32 2.05-.72 2.57 1.43 2.55h14.22c8 0 8 0 3.95-7.06-2.59-4.46-5.3-8.86-8.22-13.72-4.03 6.46-7.63 12.39-11.38 18.23Z"
        transform="translate(-209.04 -183.78)" />
</svg>