<svg id="Capa_1" data-name="Capa 1" xmlns="http://www.w3.org/2000/svg" viewBox="0 0 275.3 123.2">
    <path class="cls-1"
        d="M967.7 378H982c.2 2.7.6 5 .6 7.4 0 18.7-.4 37.3 0 56 .4 16.5-8 25.2-24.9 25.8-8.8.3-17.7.7-25.6-4.8-4.2-3-7.4-6.6-7.5-11.7-.2-24 0-48.1 0-72.5h13.8c.2 2.1.6 4.4.6 6.7v56.8c0 9.6 3.2 12.5 13.5 13 9.8.3 14.4-3 15-11.9s.2-17.7.3-26.5V378Z"
        transform="translate(-823.8 -344.1)" />
    <path class="cls-2" d="M911 466.3h-13.7V344.1h13.6Z" transform="translate(-823.8 -344.1)" />
    <path class="cls-1"
        d="M1009.5 465.6H995c-.2-2.4-.6-4.7-.6-7 0-19 .3-38 0-56.9-.5-17.1 9-23.5 23.5-25.6 5-.8 10.3-.2 16.6-.2l-4.1 12.8-8.2.6c-9.5.8-12.5 3.7-12.7 13.1-.1 11.6 0 23.2 0 34.8Z"
        transform="translate(-823.8 -344.1)" />
    <path class="cls-2"
        d="M1053.6 399.7h-13.2c-1.3-10.5 1.3-16 10-20a43 43 0 0 1 37-.3 17.8 17.8 0 0 1 11.4 18c-.2 15.2-.5 30.5.1 45.7.5 10.1-3.4 17.6-14.6 21.3a44.6 44.6 0 0 1-36.3-2.6 17.9 17.9 0 0 1-2.9-2.2c-9.4-7.7-8.6-35.9 6-40.2 8.1-2.3 16-5.5 24-8.3 7.4-2.6 9.8-6.2 9.3-12.7-.4-4.2-2.8-6.7-6.1-8.3-9.8-4.7-20-.7-24.7 9.6Zm10.3 29.7c-7.5 2.8-10.4 7.5-9.4 14.5s4.2 9.2 13 9.4l5.4-.2c7.4-.4 11-3.8 11.3-11.2.3-6.3 0-12.7 0-19.7-7.3 2.6-13.9 4.8-20.3 7.2ZM839 399.9h-13.4c-1.3-10.3 1.5-16.1 10-20.1a43 43 0 0 1 37-.5 17.7 17.7 0 0 1 11.4 18 721 721 0 0 0 0 45.8c.6 11.5-4 18-15.4 21.6a43.8 43.8 0 0 1-34.6-2.6 16.9 16.9 0 0 1-4.3-3.3c-10.6-11.2-6.5-33.6 7.6-39.7 7.5-3.2 15.5-5.3 23.2-8 7.4-2.7 10-6.4 9-12.8a12.2 12.2 0 0 0-3.2-6.2c-7-7-22.1-3.9-26.2 5l-1 2.8Zm7.9 30.5c-5.8 2.4-8.3 8-7 14.3 1.2 5.8 4.1 8 11 8.4h7.4c7-.4 10.7-3.6 11.1-10.4.4-6.7.1-13.4.1-20.5-8 2.8-15.4 5.2-22.6 8.2Z"
        transform="translate(-823.8 -344.1)" />
</svg>