<svg data-name="Capa 1" xmlns="http://www.w3.org/2000/svg" viewBox="0 0 595.3 223.3">
    <path
        d="M514.8 228.8c.2-.7.7-.6 1.1-.6a32.6 32.6 0 0 0 8.7-2.4 27.2 27.2 0 0 0 7.2-4.7 51.6 51.6 0 0 0 10.5-14.1c3.6-6.8 6.3-14 9.4-21l12.6-29.8 15.5-36.5 15.5-36.4c.8-2 .8-2-1.3-2h-20.3a2 2 0 0 0-2.1 1.5L555.4 122l-12.8 31.2c0 .1 0 0 0 0-.2.5-.3 1.2-.9 1.2s-.6-.7-.8-1l-21-52.6-7.2-18.1a1.9 1.9 0 0 0-2-1.4h-21.3c-1.1 0-1.2 0-.8 1l13.8 34 9.5 23.4c5.6 13.8 11.1 27.6 16.8 41.3a4.6 4.6 0 0 1 0 4c-1.7 3.6-3.1 7.3-4.8 11a26 26 0 0 1-5.5 8 12.1 12.1 0 0 1-8.5 3.5H502c-1.4 0-1.5 0-1.5 1.5v18c0 .6 0 1.2-.4 1.7"
        transform="translate(-1.2 -5.5)"/>
    <path
        d="M498.9 223.3v-20.4c0-.9.2-1.1 1-1h7.9a12.2 12.2 0 0 0 10.7-5.4 56.5 56.5 0 0 0 4.5-7.8c1.7-3.4 3-6.8 4.5-10.3a2.4 2.4 0 0 0 0-1.6L486.8 76.5l-.4-1H510a1.5 1.5 0 0 1 1.6 1.2l29 72.3.5-1 29.2-71.3a1.6 1.6 0 0 1 1.7-1.2H595.3l-4.5 10.7L546 191.9a83 83 0 0 1-10.6 19 29.7 29.7 0 0 1-18.6 11.8l-3.1.6h-.7a1.8 1.8 0 0 0-1.4 0Z" />
    <path 
        d="M512.7 228.8Z" transform="translate(-1.2 -5.5)" />
    <path
        d="m360.6 85.6 3.7-3.4c7.3-6.5 15.9-9 25.4-8.6a33.4 33.4 0 0 1 10.7 2 26.8 26.8 0 0 1 14 11.9c.4.8.7.7 1.2 0a39.9 39.9 0 0 1 21.7-12.8c7.5-1.5 15.1-1.8 22.6.3 10.6 3 17.4 10 21.2 20.1a49.5 49.5 0 0 1 3 17.3v62.9c0 .9-.2 1-1 1h-21.8c-1 0-1.3-.2-1.3-1.3V118a34.6 34.6 0 0 0-1.5-11c-4.9-14.8-21.3-14.2-28.7-7.6a22.8 22.8 0 0 0-7.4 14.6 39.7 39.7 0 0 0-.3 5.2v56c0 1-.2 1.2-1.3 1.2h-21.4c-1 0-1.2-.3-1.2-1.3v-57.3a34.8 34.8 0 0 0-1.4-10.5c-4.7-14.8-21.5-15.1-29.3-7a24 24 0 0 0-6.7 14.5 46 46 0 0 0-.2 5.3v55c0 1-.3 1.3-1.3 1.3h-21.4c-1 0-1.2-.2-1.2-1.1V76.6c0-.8.2-1 1-1h21.9c.8 0 1 .1 1 1v9ZM92.5 108V138a43 43 0 0 1-4.4 18.6c-4 8-10.3 13.6-18.2 17.4a55.7 55.7 0 0 1-27.4 4.8 50.5 50.5 0 0 1-20.1-4.8A37 37 0 0 1 .7 145a64.2 64.2 0 0 1-.7-9V76.6c0-1 .2-1.2 1.2-1.2H23c1 0 1.2.2 1.2 1.2v56.8c0 4.9.7 9.6 3.5 13.7 5 7.2 12 10.3 20.6 9.5 8.3-.7 14.4-5 18-12.6a25.3 25.3 0 0 0 2-10.7V76.8c0-1 .2-1.3 1.3-1.3h21.6c1.1 0 1.3.3 1.3 1.3v31.3Z" />
    <path
        d="m93.6 58.5-12.3-7.1-32.8-19a1.7 1.7 0 0 0-2 0Q24.5 45.4 2.3 58l-1 .5V33.2a1.9 1.9 0 0 1 1.1-2L46.7 5.8a1.5 1.5 0 0 1 1.7 0l44.5 25.7a1.8 1.8 0 0 1 .8 1.3V58a2.7 2.7 0 0 1 0 .4Z"
        transform="translate(-1.2 -5.5)" />
    <path
        d="M186.8 84.6V38.3c0-1.1.2-1.4 1.3-1.4h21.6c1 0 1.2.3 1.2 1.2v137c0 1-.3 1.3-1.3 1.2H188c-1 0-1.4-.1-1.4-1.2v-7.8c-2.3 1.7-4.5 3.4-6.9 4.8a50 50 0 0 1-25.8 6.4 49.2 49.2 0 0 1-47.8-36.8 55.5 55.5 0 0 1 4.5-42.5 47.6 47.6 0 0 1 33.7-24.9 51.3 51.3 0 0 1 40.5 8.8l1.9 1.5Zm-58 49.4c4.5 19.3 25 28 42.5 19.7 16-7.6 20.4-24.4 15.4-38.7-4-11.5-15-19.4-27.2-19.9-8-.3-15.2 1.8-21.3 7.1a30.9 30.9 0 0 0-10.5 23.7c.4 2.6.6 5.4 1.2 8ZM285.4 133h-37.7c-1.1 0-1.4.3-1.2 1.4a26.4 26.4 0 0 0 23 23.3c11.8 2 22.5-.7 31.7-8.5a1 1 0 0 1 1.5-.2l16.5 9.5c.7.4.5.6 0 1.1a55.4 55.4 0 0 1-34 18.4 61.4 61.4 0 0 1-30.2-2.7 46.2 46.2 0 0 1-31.3-36 61.3 61.3 0 0 1 2-33.6 47.4 47.4 0 0 1 34.8-31.2 57 57 0 0 1 31.8.9 45.2 45.2 0 0 1 21 14.5 49 49 0 0 1 11.4 27.4 89.7 89.7 0 0 1 0 14.9c0 .9-.5 1-1.2 1q-19-.2-38-.1Zm14.2-18.7c1 0 1.2-.3 1-1.2a35.5 35.5 0 0 0-.8-3.8c-2-6.1-6.3-10.3-11.8-13.1-9.5-4.8-19-4-28.2.7a23 23 0 0 0-12.7 16.2c-.1.9 0 1.2 1 1.2h51.5Z" />
</svg>