<svg id="visual" viewBox="0 0 900 600" width="900" height="600" xmlns="http://www.w3.org/2000/svg"
    xmlns:xlink="http://www.w3.org/1999/xlink" version="1.1">
    <path
        class="wave__footer__fill"
        d="M0 446L37.5 447C75 448 150 450 225 460.5C300 471 375 490 450 489.7C525 489.3 600 469.7 675 459C750 448.3 825 446.7 862.5 445.8L900 445L900 601L862.5 601C825 601 750 601 675 601C600 601 525 601 450 601C375 601 300 601 225 601C150 601 75 601 37.5 601L0 601Z"
        stroke-linecap="round" stroke-linejoin="miter">
    </path>
</svg>